<svg id="_x33_0" enable-background="new 0 0 64 64" height="512" viewBox="0 0 64 64" width="512" xmlns="http://www.w3.org/2000/svg" xmlns:xlink="http://www.w3.org/1999/xlink"><linearGradient id="SVGID_1_" gradientUnits="userSpaceOnUse" x1="32" x2="32" y1="63" y2="1"><stop offset="0" stop-color="#9f2fff"/><stop offset="1" stop-color="#0bb1d3"/></linearGradient><path d="m55 23c0-3.787-2.69-7.084-6.396-7.839-.35-.071-.604-.397-.604-.774v-1.17c0-2.292-.643-4.531-1.857-6.475-2.247-3.596-6.12-5.742-10.36-5.742h-7.566c-1.371 0-2.712.24-4.001.688-.636-.427-1.394-.688-2.216-.688-1.896 0-3.489 1.327-3.898 3.102-1.775.409-3.102 2.001-3.102 3.898 0 1.141.486 2.165 1.254 2.894-.154.801-.254 1.62-.254 2.459v1.04c0 .374-.252.697-.599.767-3.709.752-6.401 4.049-6.401 7.84 0 1.164.255 2.267.704 3.265l-8.704 15.473v.262c0 2.284 1.308 4.326 3.283 5.335l-1.283 2.416v.249c0 2.757 2.243 5 5 5h.101c.399 1.955 1.945 3.491 3.899 3.89v4.11h40v-4.11c1.955-.4 3.501-1.935 3.899-3.89h.101c2.757 0 5-2.243 5-5v-.249l-1.283-2.416c1.975-1.009 3.283-3.051 3.283-5.335v-.262l-8.704-15.473c.449-.998.704-2.101.704-3.265zm-19.217-20c3.546 0 6.784 1.795 8.664 4.802 1.016 1.626 1.553 3.498 1.553 5.415v1.17c0 1.324.927 2.474 2.205 2.734 2.778.566 4.795 3.038 4.795 5.879 0 3.309-2.691 6-6 6v2c.873 0 1.712-.146 2.499-.405.329.754.501 1.572.501 2.405 0 1.953-.951 3.762-2.518 4.881-.459-.366-.993-.643-1.583-.779-.41-1.775-2.003-3.102-3.899-3.102-1.668 0-3.099 1.027-3.698 2.481-1.406-1.018-2.28-2.645-2.297-4.427 2.429-1.21 4.235-3.485 4.8-6.232.41.105.833.178 1.28.178h.001c1.312 0 2.546-.511 3.475-1.439.927-.928 1.439-2.162 1.439-3.475v-.12c0-1.636-1.319-2.967-3-2.967v-2.394c0-3.218-1.599-6.206-4.277-7.992-1.584-1.055-3.426-1.613-5.328-1.613h-4.789c-.369 0-.738.027-1.106.07-.542-.98-1.482-1.71-2.602-1.969-.061-.266-.157-.517-.268-.759.843-.221 1.707-.342 2.587-.342zm6.617 54.8c-.702.935-1.15 2.046-1.319 3.2h-18.163c-.169-1.154-.616-2.265-1.318-3.2l-.244-.325c-.875-1.166-1.356-2.611-1.356-4.069 0-2.368 1.262-4.597 3.293-5.815.644-.387 1.381-.591 2.132-.591h5.717c-.084.321-.142.653-.142 1 0 1.897 1.327 3.489 3.102 3.898.409 1.775 2.002 3.102 3.898 3.102s3.489-1.327 3.898-3.102c.625-.144 1.189-.441 1.664-.84.278.749.438 1.539.438 2.348 0 1.458-.481 2.903-1.357 4.069zm-6.4-7.58c.532.48 1.229.78 2 .78s1.468-.301 2-.78v.78c0 1.103-.897 2-2 2s-2-.897-2-2zm3-2.22c0 .551-.448 1-1 1s-1-.449-1-1 .448-1 1-1 1 .449 1 1zm1-4v-.78c.532.48 1.229.78 2 .78s1.468-.301 2-.78v.78c0 1.103-.897 2-2 2s-2-.897-2-2zm1-3c0-.551.448-1 1-1s1 .449 1 1-.448 1-1 1-1-.449-1-1zm3-2.22c-.532-.48-1.229-.78-2-.78s-1.468.301-2 .78v-.78c0-1.103.897-2 2-2s2 .897 2 2zm-4.22 4.22h-.78c-1.103 0-2-.897-2-2s.897-2 2-2h.78c-.48.532-.78 1.229-.78 2s.301 1.468.78 2zm-1.678 1.898c.009.04.027.076.037.116-.047-.002-.091-.014-.139-.014-.771 0-1.468.301-2 .78v-.78c0-.38.115-.737.308-1.049.5.456 1.112.79 1.794.947zm-2.322 5.102h-.78c-1.103 0-2-.897-2-2s.897-2 2-2h.78c-.48.532-.78 1.229-.78 2s.301 1.468.78 2zm7.22-2c0 1.103-.897 2-2 2h-.78c.48-.532.78-1.229.78-2 0-.05-.012-.096-.015-.145.326.086.663.145 1.015.145.341 0 .666-.056.982-.137.004.046.018.091.018.137zm1.22-5c.48-.532.78-1.229.78-2s-.301-1.468-.78-2h.78c1.103 0 2 .897 2 2s-.897 2-2 2zm-19.154-18.079c1.168-.916 1.934-2.323 1.934-3.918.005-1.497-.421-2.953-1.223-4.202l-.099-.154c-.271-.423-.267-.967.041-1.427.502-.75 1.339-1.203 2.237-1.211l.182-.001h.02c.822 0 1.583.407 2.039 1.092.403.604 1.077.964 1.803.964s1.399-.36 1.803-.965c.459-.688 1.227-1.1 2.054-1.101h.189.004c.885 0 1.707.44 2.248 1.251.304.457.309 1.041-.021 1.533-.836 1.252-1.277 2.711-1.277 4.218 0 1.589.76 2.991 1.936 3.907-.447 3.455-3.398 6.093-6.936 6.093-3.534 0-6.481-2.632-6.934-6.079zm-4.066-3.921v1h2v-1c0-.879-.387-1.663-1-2.212v-3.182c0-.203.014-.406.031-.608.636-.005 1.233-.166 1.766-.436-.481 1.009-.416 2.207.201 3.169l.092.143c.6.934.914 2.014.911 3.127 0 1.654-1.346 2.999-3.085 3h-.001c-.778 0-1.51-.303-2.061-.853-.551-.552-.854-1.284-.854-2.062v-.12c0-.542.413-.967 1-.967.551 0 1 .449 1 1.001zm-1-10.78c.532.48 1.229.78 2 .78s1.468-.301 2-.78v.78c0 1.103-.897 2-2 2s-2-.897-2-2zm1-2.22c0-.551.448-1 1-1s1 .449 1 1-.448 1-1 1-1-.449-1-1zm3.22-2h.78c1.103 0 2 .897 2 2s-.897 2-2 2h-.78c.479-.532.78-1.229.78-2s-.301-1.468-.78-2zm4.777 2.031c.203-.017.405-.031.608-.031h4.789c1.506 0 2.965.442 4.219 1.277 2.121 1.414 3.387 3.78 3.387 6.328v3.175c-.609.55-1 1.336-1 2.219v1h2v-1c0-.551.449-1 1.06-1 .527 0 .94.425.94.967v.12c0 .778-.303 1.51-.854 2.061-.55.55-1.282.853-2.146.853h-.001c-1.653 0-2.999-1.346-2.999-3 0-1.11.325-2.185.972-3.153.747-1.12.744-2.575-.06-3.782-.863-1.295-2.307-2.068-3.86-2.068-.003 0-.005 0-.008 0h-.188c-1.498.002-2.888.747-3.717 1.992-.064.099-.213.098-.277 0-.829-1.243-2.211-1.982-3.702-1.982-.013 0-.024 0-.036 0l-.183.001c-.82.007-1.607.232-2.302.634.108-.238.2-.485.26-.745 1.764-.405 3.084-1.983 3.098-3.866zm-6.997-5.031c1.103 0 2 .897 2 2v.78c-.532-.479-1.229-.78-2-.78s-1.468.301-2 .78v-.78c0-1.103.897-2 2-2zm-3 3h.78c-.479.532-.78 1.229-.78 2s.301 1.468.78 2h-.78c-1.103 0-2-.897-2-2s.897-2 2-2zm-3.2 11.12c1.274-.259 2.2-1.406 2.2-2.727v-1.04c0-.493.038-.978.101-1.455h.001c.258 1.12.989 2.059 1.969 2.602-.043.367-.071.737-.071 1.105v2.399c-.02 0-.039-.006-.06-.006-1.621 0-2.94 1.331-2.94 2.967v.12c0 1.313.512 2.547 1.439 3.475.929.929 2.163 1.44 3.561 1.44h.001c.415 0 .812-.066 1.198-.161.569 2.74 2.373 5.008 4.797 6.216-.025 2.472-1.694 4.645-4.082 5.296l-3.512.958c-.54.147-1.062.344-1.572.568-2.768-.559-4.83-3.027-4.83-5.877 0-.833.172-1.651.501-2.405.787.259 1.626.405 2.499.405v-2c-3.309 0-6-2.691-6-6 0-2.843 2.019-5.316 4.8-5.88zm-12.792 25.128 7.911-14.064c.513.601 1.114 1.123 1.781 1.551-.427.955-.655 1.988-.684 3.043l-6.797 12.795c-1.262-.631-2.122-1.891-2.211-3.325zm6.992 11.752v-1h-2c-1.576 0-2.872-1.222-2.991-2.768l7.577-14.265c.746 1.843 2.161 3.368 3.957 4.242-.422.318-.827.661-1.203 1.036-2.153 2.155-3.34 5.018-3.34 8.064v7.507c-1.161-.414-2-1.514-2-2.816zm4-4.691c0-2.511.979-4.873 2.754-6.648 1.155-1.155 2.599-1.993 4.174-2.422l3.511-.958c3.028-.826 5.188-3.454 5.499-6.528.663.155 1.352.247 2.062.247.708 0 1.393-.091 2.055-.246.197 1.965 1.139 3.758 2.619 5.009-1.008.727-1.674 1.901-1.674 3.237 0 .406.072.794.185 1.164-.538.533-.916 1.201-1.085 1.938-.656.151-1.25.467-1.74.898h-6.935c-1.112 0-2.206.303-3.161.875-2.63 1.579-4.264 4.465-4.264 7.531 0 1.888.624 3.759 1.756 5.269l.244.325c.442.59.737 1.28.885 2h-6.885zm36 11.691h-6.885c.149-.721.443-1.41.886-2l.242-.324c1.133-1.51 1.757-3.382 1.757-5.27 0-1.526-.414-3.005-1.163-4.324.098-.346.163-.705.163-1.082 0-.402-.068-.798-.185-1.179.523-.522.912-1.179 1.083-1.923.853-.197 1.597-.671 2.146-1.317 1.263 1.636 1.956 3.627 1.956 5.728zm6-8h-2v1c0 1.302-.839 2.402-2 2.816v-7.507c0-2.882-1.074-5.593-3.05-7.739.027-.187.05-.376.05-.57 0-.54-.118-1.051-.313-1.522 1.236-.894 2.173-2.115 2.73-3.506l7.574 14.26c-.119 1.546-1.415 2.768-2.991 2.768zm4.992-10.752c-.089 1.434-.95 2.694-2.211 3.325l-6.796-12.795c-.029-1.055-.257-2.089-.684-3.043.668-.428 1.268-.95 1.781-1.551z" fill="url(#SVGID_1_)"/></svg>