<svg id="_x33_0" enable-background="new 0 0 64 64" height="512" viewBox="0 0 64 64" width="512" xmlns="http://www.w3.org/2000/svg" xmlns:xlink="http://www.w3.org/1999/xlink"><linearGradient id="SVGID_1_" gradientUnits="userSpaceOnUse" x1="32" x2="32" y1="63" y2="1"><stop offset="0" stop-color="#9f2fff"/><stop offset="1" stop-color="#0bb1d3"/></linearGradient><path d="m19.668 41.207c-2.709.492-5.174 1.929-6.939 4.047-1.735 2.081-2.729 4.904-2.729 7.746v10h44v-10c0-2.842-.994-5.665-2.729-7.747-1.765-2.117-4.229-3.554-6.953-4.048l-6.318-1.053v-4.108c1.729-1.233 3.115-2.982 3.987-5.045h1.013c2.206 0 4-1.794 4-4 0-.876-.291-1.68-.77-2.339.495-1.236.77-2.566.77-3.897v-.528c0-1.194-.209-2.357-.603-3.473 1.006-.783 1.603-1.702 1.603-2.762 0-1.143-.715-2.748-4-4.087v-4.913c0-2.206-1.794-4-4-4h-16c-2.206 0-4 1.794-4 4v4.913c-3.285 1.338-4 2.944-4 4.087 0 1.06.597 1.979 1.603 2.763-.394 1.116-.603 2.279-.603 3.473v.528c0 1.331.275 2.661.77 3.897-.479.659-.77 1.463-.77 2.339 0 2.206 1.794 4 4 4h1.033c.873 2.057 2.251 3.8 3.967 5.032v4.12zm7.134.84 3.329 1.997-3.545 2.363-1.179-4.128zm11.381 8.953h3.469c-.641 1.789-2.297 5.446-6.125 10h-.201zm1.11-1.707-.872.874 2.159-7.557 2.989.498c-1.336 3.209-4.244 6.152-4.276 6.185zm-6.048 11.707h-.245v-15.132l3.837 2.558zm-7.667-10.836-.871-.871c-.033-.033-2.939-2.97-4.276-6.185l2.989-.498zm.239.836 2.857 10h-.201c-3.828-4.555-5.485-8.212-6.125-10zm1.346-2.573 3.837-2.559v15.132h-.245zm-15.163 4.573c0-2.347.847-4.764 2.265-6.466 1.12-1.343 2.58-2.353 4.203-2.937.823 2.107 2.226 4.074 3.309 5.403h-1.997l.239 1.196c.04.198.967 4.561 5.873 10.804h-5.892v-8h-2v8h-6zm37.734-6.467c1.419 1.703 2.266 4.12 2.266 6.467v8h-6v-8h-2v8h-5.892c4.905-6.243 5.833-10.606 5.873-10.804l.239-1.196h-1.996c1.083-1.329 2.485-3.295 3.308-5.402 1.627.586 3.084 1.594 4.202 2.935zm-11.14-4.253-1.179 4.128-3.545-2.363 3.329-1.997zm4.406-13.28h-.362c.228-.961.362-1.963.362-3v-1c1.103 0 2 .897 2 2s-.897 2-2 2zm-.987-16.607c-1.036.483-4.085 1.607-10.013 1.607s-8.977-1.124-9.999-1.596c0 0-.001-.001-.001-.005v-1.235c1.737.65 4.892 1.438 10 1.438 5.119 0 8.276-.792 10.011-1.442zm-20.013-7.393c0-1.103.897-2 2-2h16c1.103 0 2 .897 2 2l.007 3.997c-1.041.485-4.091 1.605-10.007 1.605-5.926 0-8.977-1.124-10-1.602zm-2 7.111v.288c0 .774.448 1.483 1.142 1.807 1.436.669 4.758 1.794 10.858 1.794s9.422-1.125 10.858-1.795c.694-.323 1.142-1.033 1.142-1.807v-.288c1.441.716 2 1.431 2 1.889 0 1.631-5.454 4-14 4s-14-2.369-14-4c0-.457.559-1.172 2-1.888zm12 7.889c4.767 0 9.556-.746 12.638-2.189.235.785.362 1.596.362 2.425v.528c0 .87-.146 1.74-.41 2.57-.488-.213-1.024-.334-1.59-.334v-2h-2v.721c-.257.389-1.016 1.357-2.611 2.059l-2.143-3.214-.846.634c-.96.72-3.744 2.5-5.888 2.767l-2.357-3.537-.862.863c-.015.015-1.3 1.27-3.293 1.615v-1.908h-2v2c-.566 0-1.102.121-1.59.334-.264-.83-.41-1.7-.41-2.57v-.528c0-.829.127-1.64.362-2.425 3.082 1.443 7.871 2.189 12.638 2.189zm-11 9c-1.103 0-2-.897-2-2s.897-2 2-2v.924c0 1.064.139 2.092.375 3.076zm2-3.076v-.996c1.649-.214 2.958-.909 3.771-1.469l1.694 2.541h.535c2.431 0 5.315-1.67 6.732-2.599l1.859 2.789.725-.242c1.137-.379 2.006-.893 2.684-1.41v1.462c0 5.514-4.037 10-9 10s-9-4.52-9-10.076zm9 12.076c1.412 0 2.758-.302 4-.833v3.267l-4 2.4-4-2.4v-3.273c1.242.535 2.588.839 4 .839z" fill="url(#SVGID_1_)"/></svg>